<?xml version="1.0" encoding="utf-8"?>
<!-- Generator: Adobe Illustrator 18.0.0, SVG Export Plug-In . SVG Version: 6.00 Build 0)  -->
<!DOCTYPE svg PUBLIC "-//W3C//DTD SVG 1.1//EN" "http://www.w3.org/Graphics/SVG/1.1/DTD/svg11.dtd">
<svg version="1.1" id="Layer_1" xmlns="http://www.w3.org/2000/svg" xmlns:xlink="http://www.w3.org/1999/xlink" x="0px" y="0px"
	 viewBox="0 0.9 511 459.6" enable-background="new 0 0.9 511 459.6" xml:space="preserve">
<path fill="#FFFFFF" d="M503.3,415.1c-0.5-0.3-46.3-26.3-78.9-62.3c23-36.6,35.1-78.6,35.1-122.2c0-61.4-23.9-119.1-67.3-162.5
	C348.9,24.9,291.1,0.9,229.8,0.9c-61.4,0-119.1,23.9-162.5,67.3C23.9,111.6,0,169.4,0,230.7c0,61.4,23.9,119.1,67.3,162.5
	c43.4,43.4,101.1,67.3,162.5,67.3c39.2,0,77.5-9.9,111.5-28.8c67,37.2,155,12.3,158.8,11.1c5.8-1.7,10.1-6.7,10.8-12.8
	C511.6,424,508.6,418.1,503.3,415.1z M349.7,401.5c-4.9-3.2-11.1-3.3-16.1-0.2c-31.2,19-67.1,29.1-103.8,29.1
	c-110.1,0-199.6-89.5-199.6-199.6c0-110.1,89.5-199.6,199.6-199.6s199.6,89.5,199.6,199.6c0,41.3-12.5,80.9-36.2,114.6
	c-3.9,5.5-3.6,12.9,0.6,18.2c18.7,23.2,42.9,43,62.2,56.8C425.9,423.6,382.7,423.1,349.7,401.5z"/>
<path fill="#FFFFFF" d="M332.1,282.7H127.5c-8.3,0-15.1,6.8-15.1,15.1c0,8.3,6.8,15.1,15.1,15.1h204.6c8.3,0,15.1-6.8,15.1-15.1
	C347.2,289.5,340.4,282.7,332.1,282.7z"/>
<path fill="#FFFFFF" d="M332.1,215.6H127.5c-8.3,0-15.1,6.8-15.1,15.1c0,8.3,6.8,15.1,15.1,15.1h204.6c8.3,0,15.1-6.8,15.1-15.1
	C347.2,222.4,340.4,215.6,332.1,215.6z"/>
<path fill="#FFFFFF" d="M332.1,148.6H127.5c-8.3,0-15.1,6.8-15.1,15.1c0,8.3,6.8,15.1,15.1,15.1h204.6c8.3,0,15.1-6.8,15.1-15.1
	C347.2,155.3,340.4,148.6,332.1,148.6z"/>
</svg>
