<?xml version="1.0" encoding="utf-8"?>
<!-- Generator: Adobe Illustrator 18.0.0, SVG Export Plug-In . SVG Version: 6.00 Build 0)  -->
<!DOCTYPE svg PUBLIC "-//W3C//DTD SVG 1.1//EN" "http://www.w3.org/Graphics/SVG/1.1/DTD/svg11.dtd">
<svg version="1.1" id="Capa_1" xmlns="http://www.w3.org/2000/svg" xmlns:xlink="http://www.w3.org/1999/xlink" x="0px" y="0px"
	 viewBox="0 60.4 1000 879.2" enable-background="new 0 60.4 1000 879.2" xml:space="preserve">
<g>
	<path fill="#FFFFFF" d="M919.2,142c-52.4-52.4-121.7-81-195.7-81S580,89.9,527.7,142.3l-27.3,27.3l-27.8-27.8
		c-52.4-52.4-122.1-81.4-196.1-81.4c-73.8,0-143.3,28.8-195.5,81C28.6,193.8-0.2,263.3,0,337.3c0,74,29,143.3,81.4,195.7
		l398.1,398.1c5.5,5.5,12.9,8.5,20.1,8.5s14.6-2.8,20.1-8.3l399-397.5c52.4-52.4,81.2-121.9,81.2-195.9
		C1000.2,263.9,971.6,194.4,919.2,142z M878.5,493.3L499.7,870.7l-378-378C80.1,451.1,57.2,396,57.2,337.3s22.7-113.8,64.2-155.2
		c41.3-41.3,96.5-64.2,155-64.2c58.7,0,114.1,22.9,155.6,64.4l47.9,47.9c11.2,11.2,29.3,11.2,40.5,0l47.5-47.5
		c41.6-41.6,96.9-64.4,155.4-64.4c58.5,0,113.6,22.9,155.2,64.2c41.6,41.6,64.2,96.7,64.2,155.4C943,396.7,920.1,451.8,878.5,493.3z
		"/>
</g>
</svg>
